<?xml version="1.0" standalone="no"?>
<!DOCTYPE svg PUBLIC "-//W3C//DTD SVG 20010904//EN"
 "http://www.w3.org/TR/2001/REC-SVG-20010904/DTD/svg10.dtd">
<svg version="1.0" xmlns="http://www.w3.org/2000/svg"
 width="720.000000pt" height="720.000000pt" viewBox="0 0 720.000000 720.000000"
 preserveAspectRatio="xMidYMid meet">
<metadata>
Created by potrace 1.13, written by Peter Selinger 2001-2015
</metadata>
<g transform="translate(0.000000,720.000000) scale(0.100000,-0.100000)"
fill="#000000" stroke="none">
<path d="M4000 7154 c0 -12 -5 -14 -17 -9 -21 9 -94 18 -75 9 23 -11 12 -24
-20 -24 -18 0 -63 -11 -100 -24 -54 -19 -68 -21 -68 -10 0 21 -28 17 -35 -5
-8 -25 -40 -61 -54 -61 -31 0 -91 -43 -117 -85 -16 -25 -32 -45 -36 -45 -5 0
-8 -6 -8 -14 0 -8 -3 -16 -7 -18 -25 -11 -58 -67 -94 -159 -42 -106 -47 -141
-49 -351 0 -19 -5 -28 -15 -28 -23 0 -65 -49 -65 -76 0 -32 21 -74 37 -74 7 0
13 7 13 15 0 8 9 15 19 15 11 0 26 3 35 6 12 5 16 -1 16 -22 0 -22 3 -26 10
-14 9 15 13 16 45 19 8 0 15 7 15 15 0 22 12 26 56 16 31 -7 46 -5 74 9 19 10
41 16 48 14 6 -3 12 3 12 13 0 12 3 15 10 8 6 -6 5 -24 -1 -50 -16 -61 -54
-76 -181 -73 -54 2 -99 -1 -100 -7 -7 -24 159 -31 222 -9 23 8 44 15 46 15 12
0 0 -32 -26 -74 -28 -44 -54 -121 -35 -104 4 4 14 0 21 -9 10 -14 17 -16 41
-8 39 14 36 39 -4 43 -18 2 -33 5 -33 7 0 2 18 37 41 79 22 42 38 80 34 86 -3
5 -2 10 4 10 5 0 11 12 13 28 2 23 8 28 36 30 l33 3 -7 -49 c-5 -43 -3 -54 15
-73 25 -27 28 -18 5 15 -23 37 0 41 30 5 35 -41 73 -108 81 -140 8 -31 -13
-51 -26 -26 -5 8 -23 18 -39 22 -21 5 -30 13 -30 26 0 27 -22 24 -51 -7 -24
-26 -24 -26 -1 -15 15 8 22 8 22 1 0 -6 -7 -13 -15 -16 -8 -4 -15 -15 -15 -25
0 -15 -7 -19 -35 -19 -23 0 -35 -5 -35 -14 0 -19 34 -26 72 -15 17 4 35 6 39
3 5 -3 9 0 9 5 0 6 -8 11 -17 11 -16 1 -16 2 1 15 13 10 23 11 31 5 7 -5 14
-7 18 -4 3 3 15 1 27 -6 28 -15 54 -5 69 27 11 23 8 34 -19 89 -18 34 -29 67
-26 72 3 5 -4 12 -15 15 -17 5 -21 11 -16 34 3 15 -1 40 -10 56 -8 16 -13 30
-11 31 2 1 21 -1 43 -5 22 -3 31 -7 20 -9 -17 -2 -16 -3 5 -9 22 -6 25 -12 25
-53 0 -26 2 -49 5 -51 3 -3 52 -15 109 -27 124 -26 163 -22 188 20 12 22 26
30 52 33 l36 3 -42 8 c-34 7 -43 13 -43 29 0 16 3 17 15 7 15 -13 39 -5 30 11
-4 5 -1 9 4 9 6 0 11 -8 12 -17 0 -10 3 -13 5 -6 9 20 -52 136 -88 169 -51 47
-77 60 -157 78 -95 22 -181 14 -181 -16 0 -11 -9 -22 -20 -25 -15 -4 -20 -13
-19 -37 0 -17 3 -25 6 -18 2 6 11 12 18 12 7 0 16 6 18 13 3 6 6 3 6 -8 1 -12
4 -16 9 -9 4 7 21 9 40 7 23 -4 32 -11 32 -24 0 -11 -6 -19 -14 -19 -7 0 -19
-7 -26 -15 -14 -17 -35 -21 -25 -5 3 6 -3 10 -14 10 -10 0 -26 3 -35 6 -11 4
-16 1 -16 -11 0 -14 -3 -15 -14 -6 -11 10 -16 8 -21 -8 -5 -16 -14 -20 -43
-18 -20 1 -42 8 -47 15 -6 7 -24 16 -40 20 -41 12 -40 38 2 35 17 -2 35 2 38
7 10 16 28 12 22 -5 -4 -8 -2 -17 4 -20 9 -6 7 81 -2 89 -2 2 -26 16 -53 31
-43 24 -57 27 -112 22 -34 -2 -77 -12 -95 -21 -17 -9 -33 -16 -35 -16 -1 0 4
24 11 53 7 28 16 69 20 90 15 88 133 270 196 303 26 13 35 13 87 -1 132 -36
177 -44 327 -54 165 -12 193 -21 243 -75 54 -59 62 -101 34 -181 -30 -83 -29
-152 3 -196 44 -61 53 -83 48 -117 -5 -31 -7 -32 -39 -26 -19 3 -34 2 -34 -2
1 -21 30 -44 56 -45 33 -1 26 -4 -31 -15 l-40 -8 45 -5 c45 -6 45 -6 48 -48 2
-25 8 -43 15 -43 7 0 18 -9 25 -21 21 -34 55 -21 72 28 12 35 18 42 33 37 11
-4 23 0 28 7 6 10 11 6 18 -14 6 -15 16 -27 22 -27 8 0 8 -4 -1 -15 -7 -8 -10
-25 -6 -39 9 -35 -2 -59 -19 -43 -7 7 -11 15 -9 18 1 3 -4 18 -12 33 -16 31
-19 59 -4 36 8 -13 10 -12 10 3 0 25 -34 18 -39 -8 -2 -11 -9 -24 -16 -30 -8
-5 -16 -37 -19 -70 -2 -33 -8 -77 -11 -97 -7 -36 -6 -38 18 -38 14 0 28 4 32
10 3 5 12 7 20 4 10 -4 11 -12 5 -29 -5 -13 -5 -25 -1 -27 5 -2 5 -13 0 -25
-20 -54 -106 -70 -93 -17 4 14 2 24 -5 24 -6 0 -14 -12 -17 -27 -4 -16 -10
-32 -14 -38 -4 -5 -11 -39 -15 -75 -3 -36 -9 -73 -12 -84 -3 -12 -1 -17 8 -14
8 3 17 19 21 36 5 18 12 47 17 65 12 44 13 3 1 -48 -5 -22 -10 -80 -11 -130
-1 -100 -10 -130 -67 -213 -21 -31 -46 -68 -55 -82 -9 -14 -36 -54 -61 -90
-48 -68 -54 -93 -10 -44 140 156 234 298 234 353 0 20 2 22 16 10 22 -18 65
-105 80 -163 14 -51 6 -88 -46 -231 -25 -69 -28 -83 -50 -228 -21 -139 -28
-159 -41 -134 -14 24 -136 101 -209 132 -36 16 -88 30 -115 32 -43 4 -57 0
-93 -23 -23 -15 -42 -31 -42 -35 0 -4 -23 -13 -51 -19 -106 -26 -274 11 -331
73 -51 53 -83 200 -97 441 -5 81 -14 153 -19 158 -16 16 -20 -3 -13 -65 6 -51
5 -61 -14 -82 -12 -12 -39 -53 -60 -90 -29 -53 -49 -74 -96 -105 -78 -50 -226
-114 -324 -139 -53 -14 -152 -57 -294 -128 -229 -116 -275 -150 -269 -203 2
-23 -9 -40 -54 -87 -41 -43 -73 -93 -117 -182 -69 -139 -95 -208 -117 -319
-19 -92 -78 -209 -139 -272 -63 -66 -287 -549 -355 -765 -7 -22 -16 -44 -20
-50 -5 -5 -11 -27 -15 -48 -6 -31 -2 -51 25 -108 28 -61 31 -77 26 -127 -3
-31 -9 -95 -13 -142 -6 -59 -14 -95 -28 -115 -16 -25 -20 -54 -26 -165 -5
-111 -10 -143 -27 -177 -13 -24 -22 -61 -22 -86 0 -55 60 -235 99 -299 17 -27
31 -52 31 -56 0 -4 18 -33 40 -65 22 -33 42 -75 46 -95 8 -46 63 -147 122
-227 63 -85 76 -116 107 -247 15 -65 31 -118 36 -118 5 0 9 6 9 13 0 7 26 28
58 46 31 19 73 45 92 57 19 13 51 30 70 38 54 22 193 39 277 34 62 -4 73 -3
60 7 -9 7 -17 19 -17 28 0 9 -4 26 -9 39 -5 13 -22 64 -36 113 -50 171 -87
275 -99 282 -8 5 -15 42 -19 103 -5 91 -5 97 24 150 37 71 39 121 4 148 -23
19 -26 29 -32 119 -5 82 -12 114 -44 196 -34 85 -39 108 -39 180 l0 82 95 0
c85 0 97 2 117 23 40 40 24 160 -27 202 -9 8 -30 41 -47 73 -30 61 -28 76 12
77 27 1 110 60 130 92 19 31 19 31 24 7 3 -13 12 -114 21 -224 8 -110 22 -240
31 -290 12 -72 13 -101 4 -147 -11 -58 -6 -97 35 -288 16 -74 36 -358 38 -530
0 -83 -4 -130 -17 -170 -9 -30 -21 -94 -25 -141 -9 -101 -27 -139 -69 -139
-21 0 -24 -2 -12 -10 8 -5 25 -10 38 -10 31 0 61 67 62 138 0 30 10 86 22 125
25 80 28 179 16 421 -11 205 -17 258 -44 396 -21 101 -24 141 -19 210 5 58 2
112 -9 170 -18 102 -23 157 -36 354 -7 103 -14 156 -25 172 -8 13 -17 56 -20
96 -3 40 -14 120 -24 178 -17 96 -19 100 -19 50 -1 -30 7 -101 17 -157 10 -56
14 -108 9 -115 -4 -7 -8 -27 -8 -44 0 -17 -7 -37 -15 -44 -13 -10 -15 -9 -15
10 0 31 -22 20 -35 -19 -15 -44 -40 -61 -92 -61 -42 0 -48 -5 -43 -40 2 -19
73 -158 111 -218 28 -44 38 -79 20 -68 -4 3 -13 -5 -19 -19 -13 -29 -47 -36
-152 -33 -70 3 -75 2 -72 -17 2 -11 6 -58 9 -105 4 -64 13 -101 35 -150 39
-87 69 -320 42 -320 -8 0 -14 -4 -14 -9 0 -4 -16 -11 -35 -14 -36 -6 -103 -61
-86 -71 5 -3 26 3 47 14 100 51 123 58 140 45 20 -14 17 -35 -20 -120 -23 -54
-25 -68 -19 -147 l6 -88 -101 1 c-80 0 -110 -4 -146 -20 l-46 -20 0 22 c0 12
11 42 25 66 29 50 29 51 11 51 -8 0 -23 -15 -35 -33 l-21 -32 6 35 c3 19 10
51 15 70 12 49 11 82 -3 78 -11 -4 -31 -87 -59 -235 -10 -55 -9 -64 6 -79 15
-15 20 -16 39 -4 11 8 41 25 66 38 l45 24 -35 -30 c-19 -17 -32 -33 -29 -36 3
-3 40 12 83 34 56 29 89 40 121 40 80 0 91 -11 129 -129 19 -58 44 -143 55
-188 12 -45 23 -87 26 -95 4 -10 -15 -13 -88 -14 -136 -1 -322 -64 -397 -134
l-27 -26 -24 100 c-22 92 -30 109 -116 239 -69 105 -95 154 -103 194 -6 29
-22 66 -34 81 -46 56 -124 210 -156 307 -31 95 -32 140 -7 195 16 35 22 73 26
175 5 108 10 136 26 160 20 30 28 84 41 278 5 70 3 83 -20 127 -14 27 -26 61
-26 75 0 57 90 301 189 512 131 280 160 335 205 383 53 57 112 169 127 242 22
109 52 193 115 325 54 111 77 147 125 195 51 53 59 65 59 99 0 45 29 71 125
115 32 15 86 43 119 62 90 50 245 118 291 127 53 9 207 69 272 106 29 16 55
29 58 29 2 0 -9 -21 -26 -47 -16 -27 -40 -82 -54 -124 -19 -62 -22 -83 -14
-117 15 -68 40 -121 59 -127 11 -3 22 -15 25 -26 4 -10 10 -19 14 -19 9 0 72
86 95 132 17 34 46 43 46 14 0 -14 72 -86 86 -86 5 0 20 -10 34 -23 14 -13 33
-28 43 -33 10 -6 35 -33 56 -60 20 -27 43 -49 51 -49 8 -1 14 -7 12 -14 -1 -7
2 -10 7 -7 12 8 17 0 26 -41 7 -33 6 -33 -32 -33 -61 0 -83 -22 -83 -82 0 -29
-6 -58 -14 -67 -28 -33 -55 -182 -60 -331 -3 -98 -10 -161 -21 -195 -9 -27
-20 -75 -24 -105 -5 -30 -12 -63 -16 -72 -4 -11 -3 -18 4 -18 17 0 41 62 41
103 0 19 7 54 16 78 11 30 19 97 24 209 6 156 23 255 51 299 8 12 8 10 3 -9
-10 -37 -10 -45 1 -48 15 -5 23 34 24 119 1 60 4 78 17 83 24 9 24 9 24 -39 0
-26 5 -45 11 -45 6 0 9 -7 5 -15 -3 -8 -1 -15 4 -15 13 0 13 43 -1 57 -7 7 -5
15 6 27 9 9 20 16 25 16 14 0 21 -32 9 -47 -9 -10 -9 -17 -1 -25 18 -18 42 -1
42 30 0 26 5 30 73 51 39 13 91 36 115 52 24 16 55 29 70 29 15 0 81 21 147
46 66 25 132 50 148 56 26 9 37 28 18 28 -6 0 -47 -15 -93 -33 -235 -95 -307
-97 -131 -5 35 18 63 39 63 46 0 6 -2 12 -4 12 -16 0 -180 -101 -219 -135 -46
-40 -107 -67 -182 -81 -25 -4 -27 -3 -15 11 7 8 18 15 24 15 6 0 19 9 28 19 9
11 46 43 82 71 36 29 64 56 60 61 -9 15 -20 11 -80 -37 l-59 -45 -3 26 c-5 38
5 58 25 51 19 -8 97 40 88 54 -4 6 -18 7 -32 4 l-27 -7 21 34 c11 19 26 51 32
71 15 47 97 118 135 118 20 0 26 -5 24 -17 -2 -11 6 -19 22 -23 l25 -6 -22
-12 c-14 -8 -24 -9 -28 -2 -3 6 -30 -11 -61 -37 -38 -33 -50 -49 -42 -55 10
-6 10 -8 1 -9 -7 -1 -17 -2 -22 -3 -6 0 -15 -6 -22 -13 -25 -25 22 -28 63 -4
21 12 38 17 38 12 0 -5 -18 -17 -40 -27 -44 -20 -46 -22 -27 -48 12 -16 20
-14 107 36 52 29 113 71 136 93 l41 40 41 -28 c42 -29 93 -87 106 -122 7 -19
9 -18 37 13 30 33 38 62 18 62 -14 0 -6 97 10 126 5 11 17 53 26 94 9 41 22
85 30 96 24 37 56 145 52 173 -2 14 -2 20 0 13 3 -7 12 -11 21 -9 10 2 41 -12
71 -31 34 -21 76 -37 114 -43 33 -6 85 -20 116 -33 31 -13 82 -29 114 -35 34
-6 83 -26 117 -46 32 -19 77 -42 101 -50 24 -9 54 -23 67 -31 12 -8 59 -30
102 -49 44 -18 109 -54 144 -79 61 -43 298 -293 322 -339 7 -12 18 -49 25 -82
15 -72 52 -125 193 -282 112 -125 224 -290 252 -373 24 -67 291 -478 372 -568
52 -59 161 -274 162 -320 0 -13 6 -35 14 -51 8 -15 26 -68 41 -117 14 -50 34
-108 45 -129 27 -54 25 -86 -14 -212 -18 -59 -37 -124 -41 -143 -4 -21 -26
-55 -54 -85 -26 -27 -66 -76 -89 -107 -24 -32 -47 -58 -51 -58 -22 0 -148
-156 -162 -199 -15 -44 -74 -132 -128 -189 -24 -25 -45 -61 -52 -85 -19 -72
-42 -117 -70 -141 -15 -13 -37 -42 -48 -64 -23 -45 -130 -155 -172 -177 -14
-8 -35 -12 -45 -9 -50 13 -124 -45 -236 -186 -26 -33 -76 -76 -123 -107 -76
-50 -120 -64 -140 -44 -6 5 -55 34 -110 64 -88 48 -142 88 -221 163 -12 12
-28 24 -36 27 -11 4 -78 117 -78 132 0 1 16 6 35 9 19 4 63 26 98 49 34 24 85
56 112 72 28 15 76 48 107 72 31 23 59 43 63 43 15 0 43 38 50 69 4 18 18 54
30 80 30 59 34 84 15 88 -11 3 -25 -19 -48 -71 -17 -42 -32 -84 -32 -95 0 -11
-4 -22 -8 -25 -13 -8 -6 72 23 255 9 59 24 65 185 78 173 14 270 29 270 43 0
7 -17 8 -47 3 -63 -9 -217 -23 -221 -20 -2 2 3 16 11 32 8 15 27 64 42 108 15
44 34 89 41 100 7 11 22 45 33 76 12 31 37 78 56 104 57 80 70 196 25 210 -31
10 -27 59 8 83 15 10 32 17 38 15 6 -2 17 4 25 14 10 11 10 14 1 9 -14 -8 -97
72 -132 129 -11 19 -36 43 -54 54 -25 16 -47 49 -94 143 -33 68 -62 134 -65
148 -11 54 -34 99 -70 139 -20 22 -44 57 -52 78 -21 51 -54 85 -76 78 -55 -18
-283 419 -303 580 -3 25 -9 65 -12 90 -3 30 -10 45 -20 45 -8 0 -14 -8 -15
-17 -1 -26 -38 244 -40 297 -1 25 -6 -2 -10 -60 -5 -58 -6 -132 -3 -165 6 -70
38 -236 55 -282 11 -32 38 -46 40 -20 0 6 17 -34 38 -89 61 -165 151 -314 252
-419 111 -115 167 -190 175 -235 3 -19 14 -49 24 -67 18 -30 18 -34 -5 -140
-14 -59 -43 -155 -65 -213 -82 -210 -99 -259 -110 -321 -6 -35 -23 -100 -36
-144 -20 -61 -29 -124 -40 -265 -7 -102 -16 -203 -19 -225 -3 -22 -7 -77 -10
-123 -7 -122 -31 -210 -69 -250 -45 -49 -127 -99 -174 -107 -27 -4 -46 -15
-57 -31 -23 -35 -85 -30 -85 7 0 28 -24 24 -167 -27 -302 -108 -313 -111 -385
-106 -54 3 -92 -2 -185 -27 -65 -17 -131 -36 -148 -43 -32 -12 -84 -17 -375
-41 -156 -13 -195 -13 -250 -2 -36 7 -56 13 -46 14 33 2 5 19 -43 27 -28 5
-42 4 -38 -3 4 -6 -24 -14 -69 -19 -66 -9 -76 -8 -91 8 -15 17 -15 18 1 18 11
0 16 6 14 18 -5 25 -117 30 -153 6 -13 -9 -22 -20 -19 -25 3 -5 0 -9 -5 -9
-17 0 -13 -21 7 -36 14 -11 10 -12 -28 -7 -25 3 -48 11 -52 17 -5 8 -8 7 -8
-1 0 -19 -41 -16 -71 5 -15 9 -44 36 -66 60 -30 33 -44 41 -59 36 -10 -4 -16
-3 -12 1 10 11 -29 38 -43 30 -6 -4 -8 -13 -5 -21 3 -8 1 -14 -3 -14 -5 0 -7
-9 -4 -20 6 -23 -14 -24 -32 -3 -20 25 -38 -2 -30 -43 4 -22 10 -33 12 -26 5
14 75 52 96 52 7 0 30 -15 50 -34 46 -42 52 -94 19 -148 -12 -20 -22 -45 -22
-58 0 -13 -5 -20 -12 -18 -18 6 -67 103 -66 130 1 13 1 41 0 63 l-2 40 -15
-29 c-8 -15 -15 -42 -16 -60 0 -17 -3 -25 -6 -18 -2 6 -9 12 -15 12 -12 0 0
-61 15 -75 6 -7 8 -7 5 0 -3 6 -2 19 2 30 6 17 9 13 20 -20 7 -22 28 -68 46
-103 18 -34 32 -70 32 -80 0 -9 2 -24 6 -32 3 -9 -4 -27 -19 -44 l-26 -30 -17
25 c-9 13 -46 63 -82 111 -36 48 -73 101 -82 118 -40 71 -53 8 -14 -68 14 -27
41 -67 60 -91 20 -24 36 -51 36 -62 0 -10 13 -32 30 -49 37 -37 63 -89 79
-154 11 -46 10 -52 -10 -80 -22 -31 -35 -42 -54 -47 -15 -4 -35 -26 -35 -39 0
-6 -6 -10 -12 -8 -18 6 -19 55 -2 73 14 13 13 15 -9 15 -21 0 -24 -4 -20 -28
4 -23 0 -20 -33 24 -100 132 -119 159 -116 175 2 12 -5 19 -19 21 -20 3 -46
34 -65 78 -4 8 -20 29 -37 47 -24 26 -34 30 -48 22 -17 -9 -16 -13 18 -62 40
-56 53 -68 64 -61 8 5 19 -21 19 -46 0 -9 25 -45 55 -79 30 -34 61 -74 69 -90
14 -26 14 -30 -4 -46 -14 -13 -23 -14 -39 -5 -12 6 -21 14 -21 17 0 3 3 3 7 0
3 -4 13 -2 20 5 11 9 17 9 24 -3 7 -10 8 -7 6 10 -5 32 -26 39 -44 15 -10 -13
-13 -14 -13 -3 0 11 -2 11 -9 1 -6 -10 -10 -10 -21 3 -10 12 -10 21 -2 40 10
21 9 25 -3 25 -8 0 -15 -6 -15 -12 0 -16 -57 47 -76 84 -8 15 -23 33 -33 40
-11 8 -40 41 -64 73 -48 65 -97 115 -97 98 0 -13 108 -160 188 -258 l64 -76
-21 -52 c-32 -81 -36 -107 -17 -107 9 0 16 7 16 15 0 11 24 73 37 94 1 1 17
-9 36 -23 40 -31 89 -34 116 -7 18 18 19 17 45 -15 43 -54 72 -48 140 33 38
46 56 76 56 95 0 23 -25 101 -55 171 -6 13 -2 17 16 17 35 0 46 11 58 56 9 34
8 51 -8 98 -15 47 -16 56 -4 52 8 -3 17 -6 19 -6 2 0 4 -6 4 -13 0 -9 12 -12
38 -10 20 1 71 -5 112 -14 41 -9 95 -19 120 -23 25 -4 41 -8 36 -9 -5 0 2 -10
16 -20 55 -44 160 -51 358 -26 99 13 133 22 161 41 19 13 47 24 62 24 14 0 48
4 74 10 26 5 66 11 88 14 56 7 105 23 124 40 9 8 36 19 61 26 101 26 211 64
306 105 117 51 229 89 294 100 25 4 77 22 115 40 39 18 104 49 146 69 42 20
86 36 97 36 11 0 25 7 32 15 16 19 30 19 30 1 0 -8 -10 -16 -22 -18 -17 -2
-24 -11 -26 -32 -3 -24 -1 -28 15 -22 29 12 31 12 33 1 6 -32 -428 -185 -525
-185 -76 0 -166 -30 -328 -109 -185 -90 -217 -112 -217 -146 0 -38 21 -75 47
-81 40 -10 85 2 219 60 71 31 140 56 154 56 23 0 23 -1 -11 -24 -19 -13 -51
-44 -71 -67 -19 -24 -83 -92 -142 -150 -88 -89 -106 -112 -106 -137 0 -46 9
-60 45 -72 40 -13 67 -2 147 63 29 23 71 55 93 71 22 16 57 45 78 65 20 19 37
30 37 25 0 -23 -62 -190 -85 -230 -14 -23 -25 -45 -25 -48 0 -4 14 -5 30 -4
20 2 29 7 25 15 -2 8 4 32 15 56 10 23 27 63 36 89 9 27 21 48 25 48 5 0 9 15
9 34 0 30 9 43 75 102 52 46 75 74 75 90 0 22 -1 23 -43 10 -23 -7 -56 -20
-72 -29 -17 -9 -40 -20 -51 -26 -24 -11 -120 -96 -228 -203 -37 -37 -70 -68
-73 -68 -2 0 -11 -7 -19 -15 -39 -39 -84 0 -56 47 19 33 28 35 37 7 5 -14 0
-26 -16 -40 -12 -10 -18 -19 -13 -19 14 1 54 37 54 49 0 6 5 11 11 11 7 0 6 8
-4 23 -14 22 -11 27 107 148 95 99 140 137 209 178 61 37 87 58 87 71 0 16 -4
18 -23 11 -12 -5 -63 -12 -112 -16 -73 -6 -104 -14 -165 -43 -41 -19 -81 -41
-88 -49 -7 -7 -20 -13 -28 -13 -8 0 -31 -9 -51 -20 -48 -25 -63 -25 -56 0 5
21 -11 28 -22 10 -9 -14 -25 -12 -25 3 0 19 33 47 53 47 9 0 17 4 17 9 0 6 69
44 153 86 148 73 251 105 335 105 15 0 65 11 112 26 47 14 123 37 170 51 95
28 199 76 217 100 10 13 15 14 28 3 9 -7 13 -20 10 -28 -4 -11 0 -13 20 -8 19
5 29 0 46 -24 15 -19 63 -50 134 -86 62 -31 124 -66 139 -79 16 -13 33 -26 38
-27 18 -6 -53 -118 -91 -144 -20 -13 -54 -36 -76 -51 -103 -69 -261 -145 -294
-141 -23 3 -20 6 19 18 67 21 94 36 77 43 -8 3 -19 1 -24 -4 -11 -11 -106 -40
-135 -42 -24 -2 -23 -6 4 -16 22 -8 21 -9 -11 -25 -35 -19 -51 -15 -33 7 9 10
8 14 -3 14 -15 0 -28 -24 -21 -36 3 -4 -13 -29 -34 -57 -39 -49 -100 -165
-100 -190 0 -30 18 -11 46 49 35 75 112 173 151 194 15 8 71 26 123 40 52 14
103 29 113 35 19 10 21 6 31 -51 5 -29 4 -32 -9 -21 -8 7 -15 24 -16 39 0 14
-3 20 -6 13 -3 -7 4 -54 16 -105 11 -51 26 -118 32 -150 7 -40 15 -57 26 -57
11 0 13 6 8 23 -12 37 -19 357 -7 357 17 0 171 129 189 158 31 50 66 83 74 70
9 -15 27 -6 150 74 51 32 93 70 125 111 107 136 159 177 224 177 17 0 43 6 58
14 38 20 147 134 167 176 10 19 37 56 60 81 39 42 54 72 70 143 3 16 38 62 78
105 49 51 79 92 91 126 25 65 60 116 132 190 33 33 77 83 99 110 21 28 61 73
87 102 26 28 48 61 48 73 0 12 16 69 35 127 46 136 51 176 30 233 -9 25 -30
85 -46 134 -17 50 -37 102 -44 117 -8 15 -19 49 -25 75 -16 72 -112 255 -183
348 -34 45 -83 113 -108 151 -80 121 -151 228 -181 271 -15 23 -41 75 -58 115
-16 41 -39 86 -50 101 -11 15 -20 32 -20 39 0 6 -17 31 -37 54 -21 23 -49 60
-62 83 -13 22 -57 75 -97 118 -111 118 -159 189 -178 262 -9 35 -21 73 -28 86
-19 35 -234 271 -287 315 -45 37 -184 121 -201 121 -5 0 -41 16 -81 35 -41 19
-78 35 -84 35 -6 0 -41 18 -79 40 -40 23 -99 47 -139 56 -38 9 -88 24 -111 34
-22 10 -73 25 -113 34 -86 18 -209 94 -219 136 -13 55 -38 109 -90 195 -58 97
-62 116 -39 191 8 27 15 58 15 69 0 15 11 25 35 34 25 9 40 23 50 48 23 55 45
159 45 212 0 27 7 68 16 92 10 28 13 59 9 85 -4 29 0 60 15 103 12 34 19 68
16 76 -2 7 0 15 6 17 8 3 11 50 11 144 0 123 -2 144 -21 179 -11 22 -24 48
-27 58 -3 11 -14 21 -25 24 -13 3 -20 14 -20 29 0 15 -6 24 -16 24 -9 0 -18 9
-21 20 -3 11 -9 20 -13 20 -5 0 -11 13 -15 30 -4 16 -16 36 -27 44 -11 8 -29
28 -39 45 -10 17 -24 31 -31 31 -7 0 -19 9 -26 20 -7 11 -21 20 -32 20 -11 0
-28 4 -38 9 -51 26 -110 50 -137 57 -16 3 -34 12 -40 18 -5 7 -29 17 -52 24
-23 7 -49 19 -57 27 -19 20 -36 19 -36 -1z m195 -106 c28 -10 58 -21 67 -24 9
-3 14 -12 12 -19 -3 -7 2 -15 10 -18 9 -4 16 -13 16 -22 0 -30 25 -95 37 -95
6 0 19 7 27 16 15 14 16 13 16 -10 0 -16 6 -26 15 -26 8 0 15 -4 15 -10 0 -5
11 -10 25 -10 15 0 25 -6 25 -14 0 -7 9 -16 20 -19 13 -3 20 -14 20 -29 0 -18
2 -20 10 -8 7 11 11 9 19 -13 6 -16 11 -37 11 -48 0 -12 5 -19 12 -17 18 6 44
-25 59 -68 7 -22 16 -43 20 -49 11 -18 -2 -85 -17 -85 -8 0 -14 -7 -14 -16 0
-11 6 -15 20 -11 16 4 19 1 15 -16 -3 -12 -7 -51 -9 -86 -5 -59 -16 -98 -16
-55 -1 19 -1 19 -12 0 -8 -15 -8 -21 0 -24 15 -5 16 -32 2 -32 -5 0 -10 -14
-10 -31 0 -16 -4 -28 -9 -25 -5 3 -14 -1 -21 -9 -16 -19 -30 -19 -30 0 0 19
-39 35 -83 35 -48 0 -61 13 -54 50 8 36 -11 88 -48 132 -32 38 -34 113 -5 177
37 81 20 155 -51 222 -23 22 -45 39 -50 39 -5 0 -6 7 -3 15 4 8 19 15 34 15
26 0 29 3 28 32 -2 52 -48 84 -48 33 0 -22 -3 -24 -30 -18 -23 4 -30 2 -30
-10 0 -9 5 -19 11 -23 6 -3 7 -10 2 -15 -10 -10 -197 18 -201 30 -2 5 -25 7
-52 5 -33 -2 -52 1 -60 11 -15 18 -40 20 -40 4 0 -6 7 -9 15 -5 8 3 15 1 15
-4 0 -6 -6 -10 -12 -10 -24 0 -39 16 -32 33 5 13 2 16 -10 11 -9 -4 -16 -1
-16 6 0 8 -9 10 -24 6 -14 -3 -37 -1 -51 6 -18 8 -29 9 -33 1 -10 -14 -82 -27
-82 -13 0 5 7 10 15 10 8 0 15 4 15 10 0 12 48 60 61 60 6 0 15 -14 21 -31 15
-42 38 -34 65 24 13 26 27 47 33 47 5 0 10 -19 10 -42 1 -49 18 -78 48 -78 14
0 19 5 15 18 -3 12 2 18 15 19 12 1 22 -6 25 -18 3 -10 12 -19 20 -19 16 0 33
58 28 99 l-2 23 28 -19 c28 -19 63 -20 63 -2 0 5 7 9 15 9 8 0 15 7 15 16 0
11 5 14 18 9 9 -4 40 -16 67 -27z m-40 -849 c-1 -78 -6 -83 -78 -75 -35 3 -83
12 -106 19 -37 10 -44 17 -47 40 -3 27 -1 28 29 21 42 -10 89 -7 97 6 4 6 14
8 22 5 9 -4 19 -1 23 5 4 6 16 8 27 4 17 -5 20 -3 15 11 -5 11 -3 15 5 12 8
-2 13 -21 13 -48z m-724 -1061 c-13 -36 -14 -293 -2 -355 5 -24 6 -43 2 -43
-16 1 -40 29 -54 62 -13 30 -23 39 -58 48 -24 7 -55 9 -69 6 -24 -4 -27 -2
-22 19 2 14 28 62 57 107 29 46 75 118 102 162 43 69 48 75 51 51 2 -14 -1
-40 -7 -57z m111 -390 c-1 -5 1 -7 6 -4 5 3 49 -9 98 -26 74 -27 104 -32 175
-32 l87 0 -19 -35 c-10 -20 -19 -44 -19 -53 0 -10 -13 -27 -30 -40 -26 -19
-30 -28 -30 -69 0 -26 -5 -60 -10 -75 l-11 -27 -16 24 c-9 13 -28 37 -42 53
l-26 29 25 -16 c29 -20 40 -21 40 -4 0 15 -104 127 -118 127 -5 0 -32 18 -60
40 -27 22 -55 40 -61 40 -6 0 -27 10 -46 23 -29 18 -35 28 -35 57 0 19 -3 53
-7 75 l-6 40 54 -59 c30 -33 53 -63 51 -68z m2194 -2024 c25 -50 51 -87 77
-107 21 -18 46 -45 54 -61 8 -15 33 -48 54 -71 38 -41 39 -44 20 -54 -23 -13
-45 -73 -36 -100 3 -11 15 -23 27 -27 18 -6 20 -12 15 -61 -4 -41 -16 -70 -46
-116 -22 -34 -47 -80 -55 -102 -8 -22 -28 -69 -44 -105 -17 -36 -37 -90 -46
-120 -25 -85 -49 -109 -121 -116 -100 -11 -108 -26 -125 -234 l-12 -145 -65
-49 c-35 -26 -66 -46 -68 -44 -2 2 3 30 11 63 9 33 20 112 25 175 5 63 14 156
19 205 6 50 13 128 16 175 2 47 21 153 40 235 35 148 59 224 154 498 26 76 51
161 54 188 4 27 9 49 11 49 2 0 21 -34 41 -76z m-781 -1706 c40 -11 62 -28 35
-28 -5 0 -71 -30 -147 -66 -89 -43 -172 -74 -233 -89 -107 -26 -130 -34 -285
-98 -104 -43 -267 -97 -293 -97 -7 0 -29 -9 -49 -20 -21 -11 -47 -20 -58 -20
-25 0 -52 46 -71 118 -20 77 -19 82 21 82 26 0 33 -4 29 -15 -7 -17 23 -112
37 -121 19 -11 18 2 -2 66 -11 35 -16 67 -12 71 5 4 49 12 98 17 50 6 151 27
225 47 112 31 145 36 197 31 64 -5 103 6 358 102 93 36 91 36 150 20z m-1946
-238 l37 0 9 -63 c9 -59 9 -63 -10 -63 -11 1 -21 -7 -23 -16 -3 -14 3 -18 22
-18 16 0 26 -6 26 -15 0 -8 5 -15 10 -15 6 0 10 -9 10 -20 0 -13 -7 -20 -19
-20 -16 0 -112 17 -198 36 -25 5 -24 20 4 122 8 29 12 60 9 69 -6 14 0 15 40
9 26 -3 63 -6 83 -6z m820 -47 c7 -32 21 -77 32 -101 13 -31 15 -44 6 -47 -23
-7 -112 -24 -159 -30 -29 -4 -59 -16 -77 -31 -36 -30 -76 -31 -92 -3 -20 38
-57 189 -46 189 6 0 19 7 29 17 17 15 18 14 18 -18 1 -60 44 -209 56 -196 3 3
-1 34 -10 69 -26 107 -30 147 -15 152 8 2 35 9 61 16 33 9 45 16 41 26 -4 11
10 14 69 14 l73 0 14 -57z m-664 7 c-19 -8 -19 -9 3 -9 20 -1 27 -11 23 -33
-3 -23 78 -20 242 8 34 6 37 5 37 -17 0 -13 11 -61 24 -106 20 -69 21 -83 9
-87 -26 -10 -43 -6 -43 10 0 13 -7 15 -32 10 -68 -12 -177 -18 -210 -12 -25 4
-39 14 -47 33 -15 33 -32 107 -34 148 -1 17 -6 33 -12 37 -6 5 -4 8 5 9 8 0 4
5 -10 9 -21 7 -17 8 20 8 34 1 40 -2 25 -8z"/>
<path d="M3277 6073 c-14 -206 -4 -303 48 -461 29 -87 101 -192 157 -229 60
-40 355 -57 417 -23 25 13 18 35 -8 25 -62 -25 -282 -22 -369 6 -46 15 -135
128 -166 211 -52 138 -71 310 -52 486 7 69 6 82 -6 82 -12 0 -16 -22 -21 -97z"/>
<path d="M3894 6057 c1 -8 9 -25 18 -39 10 -14 20 -39 24 -54 4 -16 12 -32 17
-36 6 -3 13 -33 15 -66 4 -53 2 -61 -17 -71 -13 -8 -21 -8 -21 -2 0 20 -83 53
-149 58 -92 8 -204 5 -235 -7 -36 -13 -34 -35 2 -24 53 15 272 1 326 -21 35
-15 53 -34 19 -20 -18 7 -52 9 -280 20 -131 6 -158 0 -115 -24 9 -6 11 -11 5
-11 -24 0 -13 -20 20 -34 17 -8 50 -22 71 -31 48 -21 152 -24 251 -6 39 7 82
13 96 14 16 1 26 8 25 17 -1 8 4 14 11 13 15 -3 27 90 21 156 -3 26 -15 69
-28 95 -30 63 -82 112 -76 73z"/>
<path d="M4106 5913 c-3 -3 -6 -22 -6 -42 0 -90 -62 -282 -87 -274 -7 3 -13
16 -13 29 0 29 -15 31 -29 5 -6 -10 -30 -30 -55 -45 -27 -16 -46 -35 -50 -51
-3 -13 -20 -32 -36 -40 -29 -15 -40 -35 -20 -35 15 0 62 22 130 63 36 22 69
42 74 45 5 3 7 -2 3 -11 -8 -22 16 -22 38 -1 47 48 79 172 73 292 -3 62 -8 78
-22 65z"/>
<path d="M4835 4050 c-3 -5 -3 -15 0 -21 9 -13 -23 -144 -45 -189 -10 -19 -38
-90 -63 -157 -25 -67 -51 -130 -57 -140 -15 -26 -90 -221 -90 -234 0 -30 24 4
45 63 13 37 46 114 73 170 27 57 52 114 56 128 6 22 21 59 62 155 18 43 44
160 44 201 0 33 -12 45 -25 24z"/>
<path d="M5650 3947 c0 -56 7 -105 21 -152 20 -63 22 -100 26 -362 3 -169 8
-293 14 -293 5 0 9 113 9 273 0 256 -2 278 -25 375 -14 59 -25 133 -25 173 0
39 -4 69 -10 69 -6 0 -10 -34 -10 -83z"/>
<path d="M2482 3738 c-21 -34 -22 -40 -12 -130 6 -51 16 -120 23 -153 21 -108
53 -103 36 6 -5 30 -12 113 -17 184 l-7 130 -23 -37z"/>
<path d="M2167 3693 c-14 -22 61 -415 104 -553 22 -72 38 -103 64 -130 44 -44
44 -32 1 61 -41 89 -119 408 -142 582 -6 43 -16 58 -27 40z"/>
<path d="M4937 3653 c-4 -3 -7 -45 -7 -92 0 -78 -59 -500 -75 -543 -4 -11 -3
-18 4 -18 16 0 27 34 35 108 12 112 26 116 21 7 -3 -72 -2 -86 4 -50 5 28 11
109 15 181 4 72 11 159 16 195 5 35 10 99 10 142 0 71 -6 88 -23 70z"/>
<path d="M5057 3545 c6 -140 22 -302 33 -331 6 -14 10 -57 10 -97 0 -125 19
-60 25 88 6 126 3 184 -21 388 -7 53 -18 61 -30 20 l-7 -28 -7 30 c-4 17 -6
-15 -3 -70z"/>
<path d="M2117 3523 c-7 -11 28 -203 58 -326 23 -96 81 -229 125 -287 35 -46
33 -11 -4 64 -49 102 -127 363 -151 508 -6 37 -19 56 -28 41z"/>
<path d="M6195 2735 c-65 -16 -121 -40 -130 -56 -6 -8 -4 -11 6 -7 63 23 121
39 126 34 3 -3 -11 -13 -33 -21 -68 -27 -85 -39 -135 -86 -50 -48 -58 -66 -37
-87 17 -17 29 -15 21 3 -3 10 10 30 37 55 24 22 47 40 51 40 4 0 34 16 66 35
44 27 69 35 105 35 49 0 121 27 112 42 -3 4 -31 6 -62 3 -56 -4 -56 -4 -13 5
70 15 71 18 1 18 -36 0 -87 -6 -115 -13z"/>
<path d="M2215 2701 c-3 -5 26 -31 65 -58 38 -26 70 -52 70 -56 1 -22 -39 -16
-108 16 -69 32 -97 41 -195 62 -15 3 -25 10 -22 15 10 17 -33 11 -50 -6 -15
-16 -13 -18 27 -34 24 -9 68 -27 98 -40 30 -12 72 -27 92 -33 33 -10 37 -14
32 -36 -6 -25 -6 -25 9 -6 12 16 19 17 40 8 13 -6 28 -8 33 -3 5 5 25 10 44
12 29 2 35 7 38 30 3 22 -6 33 -60 71 -81 57 -105 70 -113 58z"/>
<path d="M6509 2705 c-1 -6 -2 -17 -3 -25 -2 -24 -45 -38 -155 -49 -108 -10
-132 -19 -107 -40 17 -14 313 -38 340 -28 38 15 0 27 -87 28 l-92 1 58 20 c68
24 93 57 64 86 -9 9 -18 12 -18 7z"/>
<path d="M6582 2307 c-5 -6 -22 -52 -37 -102 -46 -154 -77 -239 -101 -277 -13
-21 -24 -41 -24 -45 0 -5 -11 -25 -25 -45 -37 -54 -33 -83 5 -38 17 19 30 39
30 44 0 5 11 26 25 46 28 41 157 418 145 425 -4 3 -12 -1 -18 -8z"/>
<path d="M6110 1667 c-71 -37 -140 -92 -140 -111 -1 -6 -17 -29 -37 -51 -19
-22 -30 -30 -24 -18 21 40 11 36 -27 -13 -45 -58 -113 -172 -139 -231 -20 -48
-21 -48 -109 -7 -54 25 -74 30 -74 15 0 -4 36 -25 80 -45 61 -28 80 -41 80
-56 0 -25 26 -26 39 -2 5 9 26 23 46 31 20 7 67 43 103 80 65 64 87 80 145
101 15 5 27 14 27 20 0 17 -32 11 -85 -15 -92 -46 -139 -80 -145 -105 -4 -16
-22 -34 -48 -48 -48 -27 -51 -19 -21 41 38 74 60 104 245 325 26 31 39 40 48
33 17 -14 81 6 109 34 12 12 29 25 37 28 8 3 -7 6 -35 6 -27 1 -61 -5 -75 -12z"/>
<path d="M4780 1408 c-30 -4 -97 -11 -148 -17 -75 -8 -103 -16 -140 -39 -26
-16 -74 -44 -107 -63 -33 -18 -85 -50 -115 -70 -30 -20 -90 -56 -132 -79 -77
-41 -185 -129 -160 -130 7 0 30 13 50 29 20 16 89 59 152 96 63 37 129 77 145
89 17 13 62 40 100 61 39 20 78 44 87 52 23 20 76 31 209 43 62 5 117 14 122
19 14 14 -4 17 -63 9z"/>
<path d="M4725 1238 c-16 -5 -64 -21 -105 -35 -41 -14 -106 -29 -144 -34 -38
-6 -97 -20 -130 -33 -34 -14 -72 -27 -86 -31 -61 -18 -246 -101 -255 -115 -15
-24 22 -16 106 24 52 24 117 51 144 59 28 8 73 24 101 35 28 11 80 26 115 32
35 6 98 22 139 35 41 14 95 31 119 37 25 7 46 19 49 26 4 14 -10 14 -53 0z"/>
<path d="M4752 342 c-23 -21 -42 -41 -42 -46 0 -5 7 -3 15 4 12 10 15 10 15
-3 0 -9 -19 -35 -42 -59 -38 -39 -86 -111 -128 -192 -12 -23 -16 -25 -18 -11
-2 9 8 39 22 65 14 26 26 55 26 65 0 9 16 33 35 52 33 33 47 73 25 73 -5 0
-10 -9 -10 -20 0 -12 -7 -20 -17 -20 -19 -1 -63 -61 -63 -86 0 -8 -7 -26 -16
-40 -9 -13 -14 -27 -10 -31 3 -3 1 -12 -6 -20 -6 -7 -12 -27 -13 -43 -2 -24 1
-28 21 -27 18 2 34 20 69 77 24 41 45 82 45 90 1 8 14 25 30 38 l29 22 -14
-37 c-25 -71 -55 -169 -55 -181 0 -7 6 -12 14 -12 8 0 24 35 42 95 15 52 32
95 36 95 4 0 8 7 8 15 0 9 11 27 25 40 13 14 22 25 20 25 -3 0 4 15 15 33 25
40 25 54 2 66 -13 7 -27 1 -60 -27z"/>
</g>
</svg>
